<!--?xml version="1.0" standalone="no"?-->
              <svg id="sw-js-blob-svg" viewBox="0 0 100 100" xmlns="http://www.w3.org/2000/svg" version="1.1">
                    <defs> 
                        <linearGradient id="sw-gradient" x1="0" x2="1" y1="1" y2="0">
                            <stop id="stop1" stop-color="rgba(248, 117, 55, 1)" offset="0%"></stop>
                            <stop id="stop2" stop-color="rgba(251, 168, 31, 1)" offset="100%"></stop>
                        </linearGradient>
                    </defs>
                <path fill="url(#sw-gradient)" d="M23.1,-39.5C30.1,-36,36,-30.1,39.8,-23.1C43.5,-16.1,45.1,-8.1,44.4,-0.4C43.6,7.2,40.5,14.4,36.1,20.1C31.6,25.9,25.7,30.2,19.5,33C13.3,35.9,6.6,37.4,-0.8,38.7C-8.2,40.1,-16.4,41.4,-22.5,38.4C-28.6,35.4,-32.6,28.3,-36.5,21.2C-40.5,14.1,-44.5,7,-45.4,-0.5C-46.3,-8,-44,-16.1,-39.1,-21.6C-34.3,-27.2,-26.8,-30.3,-19.8,-33.8C-12.9,-37.3,-6.4,-41.2,0.8,-42.7C8.1,-44.1,16.1,-43,23.1,-39.5Z" width="100%" height="100%" transform="translate(50 50)" stroke-width="0" style="transition: 0.3s;"></path>
              </svg>