<!--?xml version="1.0" standalone="no"?-->
              <svg id="sw-js-blob-svg" viewBox="0 0 100 100" xmlns="http://www.w3.org/2000/svg" version="1.1">
                    <defs> 
                        <linearGradient id="sw-gradient" x1="0" x2="1" y1="1" y2="0">
                            <stop id="stop1" stop-color="rgba(94.388, 244.119, 255, 1)" offset="0%"></stop>
                            <stop id="stop2" stop-color="rgba(55.023, 240.272, 171.245, 1)" offset="100%"></stop>
                        </linearGradient>
                    </defs>
                <path fill="url(#sw-gradient)" d="M19.5,-29.4C26.5,-25.9,34.1,-22.5,37,-16.7C39.8,-11,37.8,-2.9,35.7,4.4C33.5,11.8,31.2,18.4,27,23.5C22.8,28.5,16.6,32,9.5,35.5C2.4,38.9,-5.5,42.4,-13.2,41.7C-21,41,-28.5,36.1,-33.5,29.5C-38.6,22.9,-41.2,14.6,-41.1,6.7C-41.1,-1.2,-38.3,-8.7,-34.1,-14.5C-29.8,-20.4,-24.1,-24.5,-18.2,-28.5C-12.3,-32.5,-6.1,-36.4,0.1,-36.5C6.3,-36.6,12.5,-33,19.5,-29.4Z" width="100%" height="100%" transform="translate(50 50)" stroke-width="0" style="transition: 0.3s;" stroke="url(#sw-gradient)"></path>
              </svg>