<svg xmlns="http://www.w3.org/2000/svg" xmlns:xlink="http://www.w3.org/1999/xlink" width="500" zoomAndPan="magnify" viewBox="0 0 375 374.999991" height="500" preserveAspectRatio="xMidYMid meet" version="1.0"><defs><clipPath id="f73105048e"><path d="M 172.09375 133 L 292.84375 133 L 292.84375 181.152344 L 172.09375 181.152344 Z M 172.09375 133 " clip-rule="nonzero"/></clipPath><clipPath id="32c4b674ac"><path d="M 176 133 L 292.84375 133 L 292.84375 178 L 176 178 Z M 176 133 " clip-rule="nonzero"/></clipPath><clipPath id="8fba0dbe41"><path d="M 172.09375 151 L 289 151 L 289 181.152344 L 172.09375 181.152344 Z M 172.09375 151 " clip-rule="nonzero"/></clipPath></defs><g clip-path="url(#f73105048e)"><path fill="#c9eafb" d="M 291.253906 172.339844 C 290.484375 171.46875 289.265625 171.019531 288.117188 171.179688 C 288.0625 171.191406 288.003906 171.199219 287.945312 171.210938 C 287.875 170.007812 287.402344 168.835938 286.570312 167.929688 C 285.636719 166.910156 284.414062 166.429688 283.132812 166.382812 C 283.417969 165.253906 284.296875 164.292969 283.863281 162.976562 C 283.269531 161.183594 281.472656 159.863281 279.589844 159.839844 C 278.996094 159.835938 278.398438 159.941406 277.816406 159.824219 C 277.234375 159.707031 277.542969 158.90625 277.566406 158.3125 C 277.660156 156.21875 277.679688 153.898438 276.308594 152.320312 C 275.484375 151.375 274.265625 150.851562 273.03125 150.640625 C 271.957031 150.460938 270.71875 150.375 269.648438 150.648438 C 269.371094 150.714844 269.109375 150.808594 268.863281 150.925781 C 268.871094 150.554688 268.855469 150.1875 268.824219 149.828125 C 268.152344 142.132812 259.003906 136.21875 251.609375 138.199219 C 249.867188 138.667969 245.015625 140.960938 245.808594 143.652344 C 244.589844 139.527344 241.527344 135.941406 237.765625 133.933594 C 234.894531 132.40625 230.136719 133.472656 227.46875 134.992188 C 222.152344 138.027344 219.152344 144.304688 219.082031 150.441406 C 219.082031 149.34375 214.480469 148.550781 213.6875 148.449219 C 210.804688 148.085938 208.464844 150.46875 206.757812 152.6875 C 204.785156 155.246094 205.363281 158.011719 204.351562 160.84375 C 204.46875 160.203125 200.195312 160.929688 199.777344 161.21875 C 198.367188 162.1875 197.796875 164.074219 197.363281 165.644531 C 196.566406 164.132812 194.246094 163.8125 193.007812 164.933594 C 192.914062 165.015625 192.828125 165.105469 192.746094 165.207031 C 192.371094 165.683594 192.15625 166.269531 191.816406 166.773438 C 191.507812 167.234375 191.109375 167.601562 190.664062 167.910156 C 190.652344 167.898438 190.640625 167.882812 190.628906 167.867188 C 189.015625 166.050781 186.035156 166.367188 183.914062 167.550781 C 182.78125 168.179688 181.726562 169.160156 181.105469 170.289062 C 180.59375 170.265625 180.082031 170.34375 179.609375 170.535156 C 177.804688 171.269531 176.742188 173.171875 176.613281 175.074219 C 176.605469 175.207031 176.601562 175.34375 176.601562 175.476562 C 175.789062 176.476562 175.425781 177.851562 175.925781 179.054688 C 175.574219 178.753906 175.117188 178.597656 174.65625 178.589844 C 174.066406 178.574219 173.472656 178.796875 173.074219 179.234375 C 172.613281 179.746094 172.472656 180.496094 172.640625 181.160156 L 288.152344 181.160156 C 288.273438 180.78125 288.289062 180.367188 288.253906 179.964844 C 288.1875 179.140625 287.910156 178.347656 287.484375 177.644531 L 291.972656 177.644531 C 292.433594 175.78125 292.488281 173.730469 291.253906 172.339844 Z M 291.253906 172.339844 " fill-opacity="1" fill-rule="nonzero"/></g><g clip-path="url(#32c4b674ac)"><path fill="#d9f0fc" d="M 291.972656 177.644531 L 177.195312 177.644531 C 176.828125 177.070312 176.632812 176.371094 176.605469 175.679688 C 176.597656 175.480469 176.601562 175.277344 176.613281 175.074219 C 176.742188 173.171875 177.804688 171.269531 179.609375 170.535156 C 180.484375 170.179688 181.507812 170.210938 182.386719 170.554688 C 183.359375 170.933594 184.15625 171.699219 184.375 172.726562 C 184.589844 171.089844 186.183594 170.023438 187.695312 169.363281 C 189.203125 168.703125 190.890625 168.140625 191.816406 166.773438 C 192.15625 166.269531 192.371094 165.683594 192.746094 165.207031 C 192.828125 165.105469 192.914062 165.015625 193.007812 164.933594 C 194.246094 163.8125 196.566406 164.132812 197.363281 165.644531 C 197.796875 164.074219 198.363281 162.1875 199.777344 161.21875 C 200.195312 160.929688 204.46875 160.203125 204.351562 160.84375 C 205.363281 158.011719 204.785156 155.246094 206.757812 152.6875 C 208.464844 150.46875 210.804688 148.085938 213.6875 148.449219 C 214.480469 148.550781 219.082031 149.34375 219.082031 150.441406 C 219.152344 144.304688 222.152344 138.027344 227.46875 134.992188 C 230.136719 133.472656 234.894531 132.40625 237.765625 133.933594 C 241.527344 135.941406 244.589844 139.527344 245.808594 143.652344 C 245.015625 140.960938 249.867188 138.667969 251.609375 138.199219 C 259.003906 136.21875 268.152344 142.132812 268.824219 149.828125 C 268.855469 150.1875 268.871094 150.554688 268.863281 150.925781 C 269.109375 150.808594 269.371094 150.714844 269.648438 150.648438 C 270.71875 150.375 271.957031 150.460938 273.03125 150.640625 C 274.261719 150.851562 275.484375 151.375 276.308594 152.320312 C 277.679688 153.898438 277.660156 156.21875 277.566406 158.3125 C 277.542969 158.90625 277.234375 159.707031 277.816406 159.828125 C 278.398438 159.941406 278.996094 159.835938 279.589844 159.839844 C 281.472656 159.863281 283.269531 161.183594 283.863281 162.976562 C 284.296875 164.292969 283.417969 165.253906 283.132812 166.382812 C 284.414062 166.429688 285.636719 166.910156 286.570312 167.929688 C 287.402344 168.835938 287.875 170.007812 287.945312 171.210938 C 288.003906 171.199219 288.0625 171.191406 288.117188 171.179688 C 289.265625 171.019531 290.484375 171.46875 291.253906 172.339844 C 292.488281 173.730469 292.433594 175.78125 291.972656 177.644531 Z M 291.972656 177.644531 " fill-opacity="1" fill-rule="nonzero"/></g><g clip-path="url(#8fba0dbe41)"><path fill="#c9eafb" d="M 288.152344 181.160156 L 172.640625 181.160156 C 172.472656 180.496094 172.613281 179.746094 173.074219 179.234375 C 173.472656 178.796875 174.066406 178.574219 174.65625 178.589844 C 175.117188 178.597656 175.574219 178.753906 175.925781 179.054688 C 174.976562 176.765625 177.148438 173.839844 179.601562 174.105469 C 179.878906 174.132812 180.183594 174.191406 180.425781 174.070312 C 180.449219 174.058594 180.46875 174.046875 180.488281 174.035156 C 180.738281 173.867188 180.992188 173.363281 180.6875 173.363281 C 179.984375 171.066406 181.820312 168.714844 183.914062 167.550781 C 186.035156 166.367188 189.015625 166.050781 190.628906 167.867188 C 190.789062 168.050781 190.929688 168.242188 191.050781 168.445312 C 192.382812 170.683594 191.441406 174.039062 193.046875 176.199219 C 194.484375 173.867188 196.863281 171.183594 199.726562 173.503906 C 200.527344 174.152344 200.539062 175.328125 201.203125 175.945312 C 202.554688 177.195312 203.246094 175.042969 204.632812 174.390625 C 206.023438 173.742188 207.539062 174.285156 208.894531 174.8125 C 209.210938 173.53125 208.449219 172.25 208.257812 170.945312 C 207.90625 168.542969 209.675781 166.152344 211.953125 165.34375 C 213.554688 164.773438 215.238281 164.914062 216.839844 165.398438 C 218.675781 165.953125 219.117188 166.730469 219.625 164.433594 C 220.222656 161.730469 222.023438 159.476562 223.847656 157.398438 C 225.074219 156 226.398438 154.59375 228.128906 153.914062 C 229.089844 153.535156 230.136719 153.402344 231.171875 153.398438 C 233.648438 153.390625 236.195312 154.164062 237.984375 155.886719 C 239.792969 157.625 240.289062 159.902344 240.046875 162.316406 C 241.792969 160.148438 243.089844 159.136719 245.953125 159.460938 C 246.328125 159.503906 249.195312 161.074219 249.140625 161.195312 C 250.878906 157.191406 252.453125 153.417969 256.820312 151.773438 C 260.148438 150.519531 264.070312 150.921875 266.8125 153.296875 C 266.832031 153.3125 266.847656 153.324219 266.863281 153.339844 C 267.15625 153.597656 267.433594 153.871094 267.6875 154.164062 C 269.792969 156.542969 270.679688 159.980469 270.003906 163.109375 C 269.671875 164.640625 269.007812 166.289062 269.6875 167.707031 C 270.984375 166.082031 274.136719 166.988281 274.386719 169.054688 C 274.488281 169.894531 274.226562 170.871094 274.789062 171.5 C 275.9375 170.269531 277.925781 169.941406 279.410156 170.730469 C 280.867188 171.515625 280.972656 172.695312 281.441406 174.085938 C 281.710938 174.882812 281.265625 174.921875 281.667969 175.128906 C 281.75 175.167969 281.863281 175.214844 282.023438 175.277344 C 282.355469 175.402344 283.40625 174.933594 283.929688 175.042969 C 286.214844 175.527344 288.0625 177.628906 288.253906 179.964844 C 288.289062 180.367188 288.273438 180.78125 288.152344 181.160156 Z M 288.152344 181.160156 " fill-opacity="1" fill-rule="nonzero"/></g></svg>