<svg xmlns="http://www.w3.org/2000/svg" xmlns:xlink="http://www.w3.org/1999/xlink" zoomAndPan="magnify" preserveAspectRatio="xMidYMid meet" version="1.0" viewBox="33.23 131.25 308.15 90.48"><defs><g/></defs><g fill="#fcf5e2" fill-opacity="0.4"><g transform="translate(36.287685, 220.447368)"><g><path d="M 0.421875 -75.34375 C 0.304688 -75.40625 0.0664062 -75.492188 -0.296875 -75.609375 C -0.671875 -75.722656 -0.859375 -76.035156 -0.859375 -76.546875 C -0.859375 -77.003906 -0.710938 -77.289062 -0.421875 -77.40625 C -0.140625 -77.519531 0.0234375 -77.601562 0.078125 -77.65625 C 0.765625 -77.945312 1.863281 -78.445312 3.375 -79.15625 C 4.894531 -79.875 6.640625 -80.675781 8.609375 -81.5625 C 10.585938 -82.445312 12.578125 -83.300781 14.578125 -84.125 C 16.578125 -84.957031 18.429688 -85.644531 20.140625 -86.1875 C 21.859375 -86.726562 23.234375 -87 24.265625 -87 C 25.515625 -87 26.253906 -86.65625 26.484375 -85.96875 C 26.710938 -85.289062 26.828125 -84.519531 26.828125 -83.65625 L 26.828125 -45.859375 C 29.117188 -50.429688 32.476562 -54.144531 36.90625 -57 C 41.332031 -59.851562 46.398438 -61.28125 52.109375 -61.28125 C 53.484375 -61.28125 54.910156 -61.140625 56.390625 -60.859375 C 57.878906 -60.578125 59.140625 -60.148438 60.171875 -59.578125 C 61.203125 -59.003906 61.71875 -58.289062 61.71875 -57.4375 L 61.71875 -43.03125 C 61.71875 -41.945312 61.503906 -41.003906 61.078125 -40.203125 C 60.648438 -39.398438 59.890625 -39 58.796875 -39 C 57.316406 -39 55.960938 -39.253906 54.734375 -39.765625 C 53.503906 -40.285156 52.203125 -40.890625 50.828125 -41.578125 C 49.460938 -42.265625 47.832031 -42.863281 45.9375 -43.375 C 44.050781 -43.882812 41.65625 -44.140625 38.75 -44.140625 C 34.519531 -44.140625 31.445312 -43.269531 29.53125 -41.53125 C 27.613281 -39.789062 26.65625 -37.75 26.65625 -35.40625 C 26.65625 -33.0625 27.46875 -30.71875 29.09375 -28.375 C 30.726562 -26.03125 33.03125 -24.097656 36 -22.578125 C 38.96875 -21.066406 42.425781 -20.3125 46.375 -20.3125 C 49.289062 -20.3125 51.5625 -20.582031 53.1875 -21.125 C 54.8125 -21.664062 56.148438 -22.207031 57.203125 -22.75 C 58.265625 -23.300781 59.3125 -23.578125 60.34375 -23.578125 C 61.425781 -23.578125 62.007812 -23.003906 62.09375 -21.859375 C 62.1875 -20.710938 62.234375 -19.484375 62.234375 -18.171875 L 62.234375 -1.625 C 62.234375 -0.65625 61.847656 0.0234375 61.078125 0.421875 C 60.304688 0.828125 59.375 1.070312 58.28125 1.15625 C 57.195312 1.238281 56.171875 1.28125 55.203125 1.28125 C 51.203125 1.28125 47.34375 0.367188 43.625 -1.453125 C 39.914062 -3.285156 36.617188 -5.785156 33.734375 -8.953125 C 30.847656 -12.128906 28.546875 -15.660156 26.828125 -19.546875 L 26.828125 -10.109375 C 26.828125 -7.648438 27.039062 -5.632812 27.46875 -4.0625 C 27.894531 -2.5 28.679688 -1.144531 29.828125 0 L 1.109375 0 C 2.253906 -1.144531 3.039062 -2.5 3.46875 -4.0625 C 3.894531 -5.632812 4.109375 -7.648438 4.109375 -10.109375 L 4.109375 -68.75 C 4.109375 -69.09375 4.09375 -69.71875 4.0625 -70.625 C 4.039062 -71.539062 3.769531 -72.46875 3.25 -73.40625 C 2.738281 -74.351562 1.796875 -75 0.421875 -75.34375 Z M 0.421875 -75.34375 "/></g></g></g><g fill="#fcf5e2" fill-opacity="0.4"><g transform="translate(96.722053, 220.447368)"><g><path d="M 0.421875 -75.34375 C 0.304688 -75.40625 0.0664062 -75.492188 -0.296875 -75.609375 C -0.671875 -75.722656 -0.859375 -76.035156 -0.859375 -76.546875 C -0.859375 -77.003906 -0.710938 -77.289062 -0.421875 -77.40625 C -0.140625 -77.519531 0.0234375 -77.601562 0.078125 -77.65625 C 0.765625 -77.945312 1.863281 -78.445312 3.375 -79.15625 C 4.894531 -79.875 6.640625 -80.675781 8.609375 -81.5625 C 10.585938 -82.445312 12.578125 -83.300781 14.578125 -84.125 C 16.578125 -84.957031 18.429688 -85.644531 20.140625 -86.1875 C 21.859375 -86.726562 23.234375 -87 24.265625 -87 C 25.515625 -87 26.253906 -86.65625 26.484375 -85.96875 C 26.710938 -85.289062 26.828125 -84.519531 26.828125 -83.65625 L 26.828125 -45.859375 C 29.117188 -50.429688 32.476562 -54.144531 36.90625 -57 C 41.332031 -59.851562 46.398438 -61.28125 52.109375 -61.28125 C 53.484375 -61.28125 54.910156 -61.140625 56.390625 -60.859375 C 57.878906 -60.578125 59.140625 -60.148438 60.171875 -59.578125 C 61.203125 -59.003906 61.71875 -58.289062 61.71875 -57.4375 L 61.71875 -43.03125 C 61.71875 -41.945312 61.503906 -41.003906 61.078125 -40.203125 C 60.648438 -39.398438 59.890625 -39 58.796875 -39 C 57.316406 -39 55.960938 -39.253906 54.734375 -39.765625 C 53.503906 -40.285156 52.203125 -40.890625 50.828125 -41.578125 C 49.460938 -42.265625 47.832031 -42.863281 45.9375 -43.375 C 44.050781 -43.882812 41.65625 -44.140625 38.75 -44.140625 C 34.519531 -44.140625 31.445312 -43.269531 29.53125 -41.53125 C 27.613281 -39.789062 26.65625 -37.75 26.65625 -35.40625 C 26.65625 -33.0625 27.46875 -30.71875 29.09375 -28.375 C 30.726562 -26.03125 33.03125 -24.097656 36 -22.578125 C 38.96875 -21.066406 42.425781 -20.3125 46.375 -20.3125 C 49.289062 -20.3125 51.5625 -20.582031 53.1875 -21.125 C 54.8125 -21.664062 56.148438 -22.207031 57.203125 -22.75 C 58.265625 -23.300781 59.3125 -23.578125 60.34375 -23.578125 C 61.425781 -23.578125 62.007812 -23.003906 62.09375 -21.859375 C 62.1875 -20.710938 62.234375 -19.484375 62.234375 -18.171875 L 62.234375 -1.625 C 62.234375 -0.65625 61.847656 0.0234375 61.078125 0.421875 C 60.304688 0.828125 59.375 1.070312 58.28125 1.15625 C 57.195312 1.238281 56.171875 1.28125 55.203125 1.28125 C 51.203125 1.28125 47.34375 0.367188 43.625 -1.453125 C 39.914062 -3.285156 36.617188 -5.785156 33.734375 -8.953125 C 30.847656 -12.128906 28.546875 -15.660156 26.828125 -19.546875 L 26.828125 -10.109375 C 26.828125 -7.648438 27.039062 -5.632812 27.46875 -4.0625 C 27.894531 -2.5 28.679688 -1.144531 29.828125 0 L 1.109375 0 C 2.253906 -1.144531 3.039062 -2.5 3.46875 -4.0625 C 3.894531 -5.632812 4.109375 -7.648438 4.109375 -10.109375 L 4.109375 -68.75 C 4.109375 -69.09375 4.09375 -69.71875 4.0625 -70.625 C 4.039062 -71.539062 3.769531 -72.46875 3.25 -73.40625 C 2.738281 -74.351562 1.796875 -75 0.421875 -75.34375 Z M 0.421875 -75.34375 "/></g></g></g><g fill="#fcf5e2" fill-opacity="0.4"><g transform="translate(157.156421, 220.447368)"><g><path d="M 30.4375 0 L 1.71875 0 C 2.851562 -1.144531 3.632812 -2.5 4.0625 -4.0625 C 4.5 -5.632812 4.71875 -7.648438 4.71875 -10.109375 L 4.71875 -49.890625 C 4.71875 -52.347656 4.5 -54.359375 4.0625 -55.921875 C 3.632812 -57.492188 2.851562 -58.851562 1.71875 -60 L 22.71875 -60 C 24.539062 -60 25.78125 -59.351562 26.4375 -58.0625 C 27.101562 -56.78125 27.4375 -55.054688 27.4375 -52.890625 L 27.4375 -51.4375 C 27.4375 -50.40625 27.488281 -49.800781 27.59375 -49.625 C 27.707031 -49.457031 27.851562 -49.375 28.03125 -49.375 C 28.71875 -49.375 29.390625 -49.773438 30.046875 -50.578125 C 30.703125 -51.378906 31.472656 -52.378906 32.359375 -53.578125 C 33.242188 -54.773438 34.328125 -55.957031 35.609375 -57.125 C 36.898438 -58.300781 38.53125 -59.285156 40.5 -60.078125 C 42.46875 -60.878906 44.910156 -61.28125 47.828125 -61.28125 C 52.003906 -61.28125 55.132812 -60.207031 57.21875 -58.0625 C 59.300781 -55.925781 60.710938 -53.34375 61.453125 -50.3125 C 61.742188 -49.738281 62.0625 -49.4375 62.40625 -49.40625 C 62.75 -49.382812 62.976562 -49.375 63.09375 -49.375 C 63.78125 -49.375 64.453125 -49.773438 65.109375 -50.578125 C 65.765625 -51.378906 66.535156 -52.378906 67.421875 -53.578125 C 68.304688 -54.773438 69.390625 -55.957031 70.671875 -57.125 C 71.960938 -58.300781 73.59375 -59.285156 75.5625 -60.078125 C 77.53125 -60.878906 79.972656 -61.28125 82.890625 -61.28125 C 86.035156 -61.28125 88.5625 -60.664062 90.46875 -59.4375 C 92.382812 -58.21875 93.859375 -56.59375 94.890625 -54.5625 C 95.921875 -52.53125 96.617188 -50.34375 96.984375 -48 C 97.359375 -45.65625 97.546875 -43.367188 97.546875 -41.140625 L 97.640625 -24.765625 L 97.640625 -10.109375 C 97.640625 -7.648438 97.851562 -5.632812 98.28125 -4.0625 C 98.707031 -2.5 99.492188 -1.144531 100.640625 0 L 71.921875 0 C 73.054688 -1.144531 73.835938 -2.5 74.265625 -4.0625 C 74.703125 -5.632812 74.921875 -7.648438 74.921875 -10.109375 L 74.921875 -37.96875 C 74.921875 -39.96875 74.578125 -41.738281 73.890625 -43.28125 C 73.203125 -44.832031 71.914062 -45.609375 70.03125 -45.609375 C 68.207031 -45.609375 66.550781 -44.863281 65.0625 -43.375 C 63.570312 -41.882812 62.710938 -39.082031 62.484375 -34.96875 L 62.578125 -24.765625 L 62.578125 -10.109375 C 62.578125 -7.648438 62.789062 -5.632812 63.21875 -4.0625 C 63.644531 -2.5 64.429688 -1.144531 65.578125 0 L 36.859375 0 C 38.003906 -1.144531 38.789062 -2.5 39.21875 -4.0625 C 39.644531 -5.632812 39.859375 -7.648438 39.859375 -10.109375 L 39.859375 -37.96875 C 39.859375 -39.96875 39.515625 -41.738281 38.828125 -43.28125 C 38.140625 -44.832031 36.851562 -45.609375 34.96875 -45.609375 C 33.65625 -45.609375 32.425781 -45.25 31.28125 -44.53125 C 30.144531 -43.8125 29.21875 -42.582031 28.5 -40.84375 C 27.789062 -39.101562 27.4375 -36.632812 27.4375 -33.4375 L 27.4375 -10.109375 C 27.4375 -7.648438 27.648438 -5.632812 28.078125 -4.0625 C 28.503906 -2.5 29.289062 -1.144531 30.4375 0 Z M 30.4375 0 "/></g></g></g><g fill="#fcf5e2" fill-opacity="0.4"><g transform="translate(254.708691, 220.447368)"><g><path d="M 10.890625 -7.546875 C 7.910156 -10.578125 5.691406 -13.988281 4.234375 -17.78125 C 2.785156 -21.582031 2.085938 -25.5 2.140625 -29.53125 C 2.203125 -33.5625 3.015625 -37.503906 4.578125 -41.359375 C 6.148438 -45.210938 8.484375 -48.6875 11.578125 -51.78125 C 14.710938 -54.914062 18.222656 -57.269531 22.109375 -58.84375 C 25.992188 -60.414062 29.9375 -61.203125 33.9375 -61.203125 C 37.832031 -61.203125 41.617188 -60.472656 45.296875 -59.015625 C 48.984375 -57.554688 52.285156 -55.34375 55.203125 -52.375 C 58.171875 -49.40625 60.382812 -46.019531 61.84375 -42.21875 C 63.300781 -38.414062 64 -34.5 63.9375 -30.46875 C 63.882812 -26.445312 63.070312 -22.503906 61.5 -18.640625 C 59.925781 -14.785156 57.597656 -11.316406 54.515625 -8.234375 C 51.367188 -5.085938 47.851562 -2.710938 43.96875 -1.109375 C 40.082031 0.484375 36.140625 1.28125 32.140625 1.28125 C 28.253906 1.28125 24.46875 0.554688 20.78125 -0.890625 C 17.101562 -2.347656 13.804688 -4.566406 10.890625 -7.546875 Z M 28.890625 -56.65625 C 27.003906 -56.375 25.472656 -54.90625 24.296875 -52.25 C 23.128906 -49.59375 22.414062 -46.160156 22.15625 -41.953125 C 21.894531 -37.753906 22.140625 -33.140625 22.890625 -28.109375 C 23.691406 -23.140625 24.847656 -18.695312 26.359375 -14.78125 C 27.867188 -10.875 29.582031 -7.832031 31.5 -5.65625 C 33.414062 -3.488281 35.285156 -2.546875 37.109375 -2.828125 C 38.941406 -3.109375 40.425781 -4.5625 41.5625 -7.1875 C 42.707031 -9.820312 43.421875 -13.253906 43.703125 -17.484375 C 43.992188 -21.710938 43.769531 -26.34375 43.03125 -31.375 C 42.289062 -36.34375 41.160156 -40.785156 39.640625 -44.703125 C 38.128906 -48.617188 36.429688 -51.660156 34.546875 -53.828125 C 32.660156 -56.003906 30.773438 -56.945312 28.890625 -56.65625 Z M 28.890625 -56.65625 "/></g></g></g><g fill="#fcf5e2" fill-opacity="1"><g transform="translate(34.090309, 218.249986)"><g><path d="M 0.421875 -75.34375 C 0.304688 -75.40625 0.0664062 -75.492188 -0.296875 -75.609375 C -0.671875 -75.722656 -0.859375 -76.035156 -0.859375 -76.546875 C -0.859375 -77.003906 -0.710938 -77.289062 -0.421875 -77.40625 C -0.140625 -77.519531 0.0234375 -77.601562 0.078125 -77.65625 C 0.765625 -77.945312 1.863281 -78.445312 3.375 -79.15625 C 4.894531 -79.875 6.640625 -80.675781 8.609375 -81.5625 C 10.585938 -82.445312 12.578125 -83.300781 14.578125 -84.125 C 16.578125 -84.957031 18.429688 -85.644531 20.140625 -86.1875 C 21.859375 -86.726562 23.234375 -87 24.265625 -87 C 25.515625 -87 26.253906 -86.65625 26.484375 -85.96875 C 26.710938 -85.289062 26.828125 -84.519531 26.828125 -83.65625 L 26.828125 -45.859375 C 29.117188 -50.429688 32.476562 -54.144531 36.90625 -57 C 41.332031 -59.851562 46.398438 -61.28125 52.109375 -61.28125 C 53.484375 -61.28125 54.910156 -61.140625 56.390625 -60.859375 C 57.878906 -60.578125 59.140625 -60.148438 60.171875 -59.578125 C 61.203125 -59.003906 61.71875 -58.289062 61.71875 -57.4375 L 61.71875 -43.03125 C 61.71875 -41.945312 61.503906 -41.003906 61.078125 -40.203125 C 60.648438 -39.398438 59.890625 -39 58.796875 -39 C 57.316406 -39 55.960938 -39.253906 54.734375 -39.765625 C 53.503906 -40.285156 52.203125 -40.890625 50.828125 -41.578125 C 49.460938 -42.265625 47.832031 -42.863281 45.9375 -43.375 C 44.050781 -43.882812 41.65625 -44.140625 38.75 -44.140625 C 34.519531 -44.140625 31.445312 -43.269531 29.53125 -41.53125 C 27.613281 -39.789062 26.65625 -37.75 26.65625 -35.40625 C 26.65625 -33.0625 27.46875 -30.71875 29.09375 -28.375 C 30.726562 -26.03125 33.03125 -24.097656 36 -22.578125 C 38.96875 -21.066406 42.425781 -20.3125 46.375 -20.3125 C 49.289062 -20.3125 51.5625 -20.582031 53.1875 -21.125 C 54.8125 -21.664062 56.148438 -22.207031 57.203125 -22.75 C 58.265625 -23.300781 59.3125 -23.578125 60.34375 -23.578125 C 61.425781 -23.578125 62.007812 -23.003906 62.09375 -21.859375 C 62.1875 -20.710938 62.234375 -19.484375 62.234375 -18.171875 L 62.234375 -1.625 C 62.234375 -0.65625 61.847656 0.0234375 61.078125 0.421875 C 60.304688 0.828125 59.375 1.070312 58.28125 1.15625 C 57.195312 1.238281 56.171875 1.28125 55.203125 1.28125 C 51.203125 1.28125 47.34375 0.367188 43.625 -1.453125 C 39.914062 -3.285156 36.617188 -5.785156 33.734375 -8.953125 C 30.847656 -12.128906 28.546875 -15.660156 26.828125 -19.546875 L 26.828125 -10.109375 C 26.828125 -7.648438 27.039062 -5.632812 27.46875 -4.0625 C 27.894531 -2.5 28.679688 -1.144531 29.828125 0 L 1.109375 0 C 2.253906 -1.144531 3.039062 -2.5 3.46875 -4.0625 C 3.894531 -5.632812 4.109375 -7.648438 4.109375 -10.109375 L 4.109375 -68.75 C 4.109375 -69.09375 4.09375 -69.71875 4.0625 -70.625 C 4.039062 -71.539062 3.769531 -72.46875 3.25 -73.40625 C 2.738281 -74.351562 1.796875 -75 0.421875 -75.34375 Z M 0.421875 -75.34375 "/></g></g></g><g fill="#fcf5e2" fill-opacity="1"><g transform="translate(94.524678, 218.249986)"><g><path d="M 0.421875 -75.34375 C 0.304688 -75.40625 0.0664062 -75.492188 -0.296875 -75.609375 C -0.671875 -75.722656 -0.859375 -76.035156 -0.859375 -76.546875 C -0.859375 -77.003906 -0.710938 -77.289062 -0.421875 -77.40625 C -0.140625 -77.519531 0.0234375 -77.601562 0.078125 -77.65625 C 0.765625 -77.945312 1.863281 -78.445312 3.375 -79.15625 C 4.894531 -79.875 6.640625 -80.675781 8.609375 -81.5625 C 10.585938 -82.445312 12.578125 -83.300781 14.578125 -84.125 C 16.578125 -84.957031 18.429688 -85.644531 20.140625 -86.1875 C 21.859375 -86.726562 23.234375 -87 24.265625 -87 C 25.515625 -87 26.253906 -86.65625 26.484375 -85.96875 C 26.710938 -85.289062 26.828125 -84.519531 26.828125 -83.65625 L 26.828125 -45.859375 C 29.117188 -50.429688 32.476562 -54.144531 36.90625 -57 C 41.332031 -59.851562 46.398438 -61.28125 52.109375 -61.28125 C 53.484375 -61.28125 54.910156 -61.140625 56.390625 -60.859375 C 57.878906 -60.578125 59.140625 -60.148438 60.171875 -59.578125 C 61.203125 -59.003906 61.71875 -58.289062 61.71875 -57.4375 L 61.71875 -43.03125 C 61.71875 -41.945312 61.503906 -41.003906 61.078125 -40.203125 C 60.648438 -39.398438 59.890625 -39 58.796875 -39 C 57.316406 -39 55.960938 -39.253906 54.734375 -39.765625 C 53.503906 -40.285156 52.203125 -40.890625 50.828125 -41.578125 C 49.460938 -42.265625 47.832031 -42.863281 45.9375 -43.375 C 44.050781 -43.882812 41.65625 -44.140625 38.75 -44.140625 C 34.519531 -44.140625 31.445312 -43.269531 29.53125 -41.53125 C 27.613281 -39.789062 26.65625 -37.75 26.65625 -35.40625 C 26.65625 -33.0625 27.46875 -30.71875 29.09375 -28.375 C 30.726562 -26.03125 33.03125 -24.097656 36 -22.578125 C 38.96875 -21.066406 42.425781 -20.3125 46.375 -20.3125 C 49.289062 -20.3125 51.5625 -20.582031 53.1875 -21.125 C 54.8125 -21.664062 56.148438 -22.207031 57.203125 -22.75 C 58.265625 -23.300781 59.3125 -23.578125 60.34375 -23.578125 C 61.425781 -23.578125 62.007812 -23.003906 62.09375 -21.859375 C 62.1875 -20.710938 62.234375 -19.484375 62.234375 -18.171875 L 62.234375 -1.625 C 62.234375 -0.65625 61.847656 0.0234375 61.078125 0.421875 C 60.304688 0.828125 59.375 1.070312 58.28125 1.15625 C 57.195312 1.238281 56.171875 1.28125 55.203125 1.28125 C 51.203125 1.28125 47.34375 0.367188 43.625 -1.453125 C 39.914062 -3.285156 36.617188 -5.785156 33.734375 -8.953125 C 30.847656 -12.128906 28.546875 -15.660156 26.828125 -19.546875 L 26.828125 -10.109375 C 26.828125 -7.648438 27.039062 -5.632812 27.46875 -4.0625 C 27.894531 -2.5 28.679688 -1.144531 29.828125 0 L 1.109375 0 C 2.253906 -1.144531 3.039062 -2.5 3.46875 -4.0625 C 3.894531 -5.632812 4.109375 -7.648438 4.109375 -10.109375 L 4.109375 -68.75 C 4.109375 -69.09375 4.09375 -69.71875 4.0625 -70.625 C 4.039062 -71.539062 3.769531 -72.46875 3.25 -73.40625 C 2.738281 -74.351562 1.796875 -75 0.421875 -75.34375 Z M 0.421875 -75.34375 "/></g></g></g><g fill="#fcf5e2" fill-opacity="1"><g transform="translate(154.959046, 218.249986)"><g><path d="M 30.4375 0 L 1.71875 0 C 2.851562 -1.144531 3.632812 -2.5 4.0625 -4.0625 C 4.5 -5.632812 4.71875 -7.648438 4.71875 -10.109375 L 4.71875 -49.890625 C 4.71875 -52.347656 4.5 -54.359375 4.0625 -55.921875 C 3.632812 -57.492188 2.851562 -58.851562 1.71875 -60 L 22.71875 -60 C 24.539062 -60 25.78125 -59.351562 26.4375 -58.0625 C 27.101562 -56.78125 27.4375 -55.054688 27.4375 -52.890625 L 27.4375 -51.4375 C 27.4375 -50.40625 27.488281 -49.800781 27.59375 -49.625 C 27.707031 -49.457031 27.851562 -49.375 28.03125 -49.375 C 28.71875 -49.375 29.390625 -49.773438 30.046875 -50.578125 C 30.703125 -51.378906 31.472656 -52.378906 32.359375 -53.578125 C 33.242188 -54.773438 34.328125 -55.957031 35.609375 -57.125 C 36.898438 -58.300781 38.53125 -59.285156 40.5 -60.078125 C 42.46875 -60.878906 44.910156 -61.28125 47.828125 -61.28125 C 52.003906 -61.28125 55.132812 -60.207031 57.21875 -58.0625 C 59.300781 -55.925781 60.710938 -53.34375 61.453125 -50.3125 C 61.742188 -49.738281 62.0625 -49.4375 62.40625 -49.40625 C 62.75 -49.382812 62.976562 -49.375 63.09375 -49.375 C 63.78125 -49.375 64.453125 -49.773438 65.109375 -50.578125 C 65.765625 -51.378906 66.535156 -52.378906 67.421875 -53.578125 C 68.304688 -54.773438 69.390625 -55.957031 70.671875 -57.125 C 71.960938 -58.300781 73.59375 -59.285156 75.5625 -60.078125 C 77.53125 -60.878906 79.972656 -61.28125 82.890625 -61.28125 C 86.035156 -61.28125 88.5625 -60.664062 90.46875 -59.4375 C 92.382812 -58.21875 93.859375 -56.59375 94.890625 -54.5625 C 95.921875 -52.53125 96.617188 -50.34375 96.984375 -48 C 97.359375 -45.65625 97.546875 -43.367188 97.546875 -41.140625 L 97.640625 -24.765625 L 97.640625 -10.109375 C 97.640625 -7.648438 97.851562 -5.632812 98.28125 -4.0625 C 98.707031 -2.5 99.492188 -1.144531 100.640625 0 L 71.921875 0 C 73.054688 -1.144531 73.835938 -2.5 74.265625 -4.0625 C 74.703125 -5.632812 74.921875 -7.648438 74.921875 -10.109375 L 74.921875 -37.96875 C 74.921875 -39.96875 74.578125 -41.738281 73.890625 -43.28125 C 73.203125 -44.832031 71.914062 -45.609375 70.03125 -45.609375 C 68.207031 -45.609375 66.550781 -44.863281 65.0625 -43.375 C 63.570312 -41.882812 62.710938 -39.082031 62.484375 -34.96875 L 62.578125 -24.765625 L 62.578125 -10.109375 C 62.578125 -7.648438 62.789062 -5.632812 63.21875 -4.0625 C 63.644531 -2.5 64.429688 -1.144531 65.578125 0 L 36.859375 0 C 38.003906 -1.144531 38.789062 -2.5 39.21875 -4.0625 C 39.644531 -5.632812 39.859375 -7.648438 39.859375 -10.109375 L 39.859375 -37.96875 C 39.859375 -39.96875 39.515625 -41.738281 38.828125 -43.28125 C 38.140625 -44.832031 36.851562 -45.609375 34.96875 -45.609375 C 33.65625 -45.609375 32.425781 -45.25 31.28125 -44.53125 C 30.144531 -43.8125 29.21875 -42.582031 28.5 -40.84375 C 27.789062 -39.101562 27.4375 -36.632812 27.4375 -33.4375 L 27.4375 -10.109375 C 27.4375 -7.648438 27.648438 -5.632812 28.078125 -4.0625 C 28.503906 -2.5 29.289062 -1.144531 30.4375 0 Z M 30.4375 0 "/></g></g></g><g fill="#fcf5e2" fill-opacity="1"><g transform="translate(252.511316, 218.249986)"><g><path d="M 10.890625 -7.546875 C 7.910156 -10.578125 5.691406 -13.988281 4.234375 -17.78125 C 2.785156 -21.582031 2.085938 -25.5 2.140625 -29.53125 C 2.203125 -33.5625 3.015625 -37.503906 4.578125 -41.359375 C 6.148438 -45.210938 8.484375 -48.6875 11.578125 -51.78125 C 14.710938 -54.914062 18.222656 -57.269531 22.109375 -58.84375 C 25.992188 -60.414062 29.9375 -61.203125 33.9375 -61.203125 C 37.832031 -61.203125 41.617188 -60.472656 45.296875 -59.015625 C 48.984375 -57.554688 52.285156 -55.34375 55.203125 -52.375 C 58.171875 -49.40625 60.382812 -46.019531 61.84375 -42.21875 C 63.300781 -38.414062 64 -34.5 63.9375 -30.46875 C 63.882812 -26.445312 63.070312 -22.503906 61.5 -18.640625 C 59.925781 -14.785156 57.597656 -11.316406 54.515625 -8.234375 C 51.367188 -5.085938 47.851562 -2.710938 43.96875 -1.109375 C 40.082031 0.484375 36.140625 1.28125 32.140625 1.28125 C 28.253906 1.28125 24.46875 0.554688 20.78125 -0.890625 C 17.101562 -2.347656 13.804688 -4.566406 10.890625 -7.546875 Z M 28.890625 -56.65625 C 27.003906 -56.375 25.472656 -54.90625 24.296875 -52.25 C 23.128906 -49.59375 22.414062 -46.160156 22.15625 -41.953125 C 21.894531 -37.753906 22.140625 -33.140625 22.890625 -28.109375 C 23.691406 -23.140625 24.847656 -18.695312 26.359375 -14.78125 C 27.867188 -10.875 29.582031 -7.832031 31.5 -5.65625 C 33.414062 -3.488281 35.285156 -2.546875 37.109375 -2.828125 C 38.941406 -3.109375 40.425781 -4.5625 41.5625 -7.1875 C 42.707031 -9.820312 43.421875 -13.253906 43.703125 -17.484375 C 43.992188 -21.710938 43.769531 -26.34375 43.03125 -31.375 C 42.289062 -36.34375 41.160156 -40.785156 39.640625 -44.703125 C 38.128906 -48.617188 36.429688 -51.660156 34.546875 -53.828125 C 32.660156 -56.003906 30.773438 -56.945312 28.890625 -56.65625 Z M 28.890625 -56.65625 "/></g></g></g><g fill="#fcf5e2" fill-opacity="0.4"><g transform="translate(317.291572, 220.447368)"><g><path d="M 1.71875 -9.9375 C 1.71875 -12 2.21875 -13.875 3.21875 -15.5625 C 4.21875 -17.25 5.570312 -18.59375 7.28125 -19.59375 C 9 -20.59375 10.882812 -21.09375 12.9375 -21.09375 C 15 -21.09375 16.875 -20.59375 18.5625 -19.59375 C 20.25 -18.59375 21.59375 -17.25 22.59375 -15.5625 C 23.59375 -13.875 24.09375 -12 24.09375 -9.9375 C 24.09375 -7.882812 23.59375 -6 22.59375 -4.28125 C 21.59375 -2.570312 20.25 -1.21875 18.5625 -0.21875 C 16.875 0.78125 15 1.28125 12.9375 1.28125 C 10.882812 1.28125 9 0.78125 7.28125 -0.21875 C 5.570312 -1.21875 4.21875 -2.570312 3.21875 -4.28125 C 2.21875 -6 1.71875 -7.882812 1.71875 -9.9375 Z M 1.71875 -9.9375 "/></g></g></g><g fill="#fec565" fill-opacity="1"><g transform="translate(315.094197, 218.249986)"><g><path d="M 1.71875 -9.9375 C 1.71875 -12 2.21875 -13.875 3.21875 -15.5625 C 4.21875 -17.25 5.570312 -18.59375 7.28125 -19.59375 C 9 -20.59375 10.882812 -21.09375 12.9375 -21.09375 C 15 -21.09375 16.875 -20.59375 18.5625 -19.59375 C 20.25 -18.59375 21.59375 -17.25 22.59375 -15.5625 C 23.59375 -13.875 24.09375 -12 24.09375 -9.9375 C 24.09375 -7.882812 23.59375 -6 22.59375 -4.28125 C 21.59375 -2.570312 20.25 -1.21875 18.5625 -0.21875 C 16.875 0.78125 15 1.28125 12.9375 1.28125 C 10.882812 1.28125 9 0.78125 7.28125 -0.21875 C 5.570312 -1.21875 4.21875 -2.570312 3.21875 -4.28125 C 2.21875 -6 1.71875 -7.882812 1.71875 -9.9375 Z M 1.71875 -9.9375 "/></g></g></g></svg>