<svg xmlns="http://www.w3.org/2000/svg" xmlns:xlink="http://www.w3.org/1999/xlink" width="500" zoomAndPan="magnify" viewBox="0 0 375 374.999991" height="500" preserveAspectRatio="xMidYMid meet" version="1.0"><defs><g/></defs><g fill="#fcf5e2" fill-opacity="0.4"><g transform="translate(89.67873, 274.680095)"><g><path d="M 1.03125 -180.09375 C 0.75 -180.226562 0.164062 -180.429688 -0.71875 -180.703125 C -1.601562 -180.984375 -2.046875 -181.738281 -2.046875 -182.96875 C -2.046875 -184.0625 -1.703125 -184.742188 -1.015625 -185.015625 C -0.335938 -185.285156 0.0664062 -185.488281 0.203125 -185.625 C 1.835938 -186.3125 4.460938 -187.507812 8.078125 -189.21875 C 11.703125 -190.925781 15.867188 -192.835938 20.578125 -194.953125 C 25.296875 -197.066406 30.046875 -199.113281 34.828125 -201.09375 C 39.609375 -203.082031 44.046875 -204.722656 48.140625 -206.015625 C 52.242188 -207.316406 55.523438 -207.96875 57.984375 -207.96875 C 60.984375 -207.96875 62.753906 -207.144531 63.296875 -205.5 C 63.847656 -203.863281 64.125 -202.019531 64.125 -199.96875 L 64.125 -109.609375 C 69.59375 -120.535156 77.617188 -129.414062 88.203125 -136.25 C 98.785156 -143.082031 110.910156 -146.5 124.578125 -146.5 C 127.847656 -146.5 131.257812 -146.15625 134.8125 -145.46875 C 138.363281 -144.789062 141.367188 -143.765625 143.828125 -142.390625 C 146.285156 -141.023438 147.515625 -139.320312 147.515625 -137.28125 L 147.515625 -102.859375 C 147.515625 -100.265625 147.003906 -98.007812 145.984375 -96.09375 C 144.960938 -94.175781 143.15625 -93.21875 140.5625 -93.21875 C 137.007812 -93.21875 133.765625 -93.832031 130.828125 -95.0625 C 127.890625 -96.289062 124.78125 -97.722656 121.5 -99.359375 C 118.21875 -101.003906 114.320312 -102.441406 109.8125 -103.671875 C 105.3125 -104.898438 99.578125 -105.515625 92.609375 -105.515625 C 82.503906 -105.515625 75.160156 -103.429688 70.578125 -99.265625 C 66.003906 -95.097656 63.71875 -90.21875 63.71875 -84.625 C 63.71875 -79.019531 65.664062 -73.414062 69.5625 -67.8125 C 73.457031 -62.21875 78.953125 -57.609375 86.046875 -53.984375 C 93.148438 -50.367188 101.414062 -48.5625 110.84375 -48.5625 C 117.8125 -48.5625 123.238281 -49.207031 127.125 -50.5 C 131.019531 -51.800781 134.234375 -53.097656 136.765625 -54.390625 C 139.296875 -55.691406 141.789062 -56.34375 144.25 -56.34375 C 146.84375 -56.34375 148.238281 -54.976562 148.4375 -52.25 C 148.644531 -49.519531 148.75 -46.582031 148.75 -43.4375 L 148.75 -3.890625 C 148.75 -1.566406 147.828125 0.0664062 145.984375 1.015625 C 144.140625 1.972656 141.921875 2.554688 139.328125 2.765625 C 136.734375 2.972656 134.273438 3.078125 131.953125 3.078125 C 122.390625 3.078125 113.164062 0.890625 104.28125 -3.484375 C 95.40625 -7.859375 87.519531 -13.832031 80.625 -21.40625 C 73.726562 -28.988281 68.226562 -37.425781 64.125 -46.71875 L 64.125 -24.171875 C 64.125 -18.296875 64.632812 -13.476562 65.65625 -9.71875 C 66.6875 -5.96875 68.566406 -2.726562 71.296875 0 L 2.65625 0 C 5.394531 -2.726562 7.273438 -5.96875 8.296875 -9.71875 C 9.316406 -13.476562 9.828125 -18.296875 9.828125 -24.171875 L 9.828125 -164.328125 C 9.828125 -165.140625 9.789062 -166.640625 9.71875 -168.828125 C 9.65625 -171.015625 9.007812 -173.234375 7.78125 -175.484375 C 6.550781 -177.742188 4.300781 -179.28125 1.03125 -180.09375 Z M 1.03125 -180.09375 "/></g></g></g><g fill="#fcf5e2" fill-opacity="1"><g transform="translate(84.426738, 269.428108)"><g><path d="M 1.03125 -180.09375 C 0.75 -180.226562 0.164062 -180.429688 -0.71875 -180.703125 C -1.601562 -180.984375 -2.046875 -181.738281 -2.046875 -182.96875 C -2.046875 -184.0625 -1.703125 -184.742188 -1.015625 -185.015625 C -0.335938 -185.285156 0.0664062 -185.488281 0.203125 -185.625 C 1.835938 -186.3125 4.460938 -187.507812 8.078125 -189.21875 C 11.703125 -190.925781 15.867188 -192.835938 20.578125 -194.953125 C 25.296875 -197.066406 30.046875 -199.113281 34.828125 -201.09375 C 39.609375 -203.082031 44.046875 -204.722656 48.140625 -206.015625 C 52.242188 -207.316406 55.523438 -207.96875 57.984375 -207.96875 C 60.984375 -207.96875 62.753906 -207.144531 63.296875 -205.5 C 63.847656 -203.863281 64.125 -202.019531 64.125 -199.96875 L 64.125 -109.609375 C 69.59375 -120.535156 77.617188 -129.414062 88.203125 -136.25 C 98.785156 -143.082031 110.910156 -146.5 124.578125 -146.5 C 127.847656 -146.5 131.257812 -146.15625 134.8125 -145.46875 C 138.363281 -144.789062 141.367188 -143.765625 143.828125 -142.390625 C 146.285156 -141.023438 147.515625 -139.320312 147.515625 -137.28125 L 147.515625 -102.859375 C 147.515625 -100.265625 147.003906 -98.007812 145.984375 -96.09375 C 144.960938 -94.175781 143.15625 -93.21875 140.5625 -93.21875 C 137.007812 -93.21875 133.765625 -93.832031 130.828125 -95.0625 C 127.890625 -96.289062 124.78125 -97.722656 121.5 -99.359375 C 118.21875 -101.003906 114.320312 -102.441406 109.8125 -103.671875 C 105.3125 -104.898438 99.578125 -105.515625 92.609375 -105.515625 C 82.503906 -105.515625 75.160156 -103.429688 70.578125 -99.265625 C 66.003906 -95.097656 63.71875 -90.21875 63.71875 -84.625 C 63.71875 -79.019531 65.664062 -73.414062 69.5625 -67.8125 C 73.457031 -62.21875 78.953125 -57.609375 86.046875 -53.984375 C 93.148438 -50.367188 101.414062 -48.5625 110.84375 -48.5625 C 117.8125 -48.5625 123.238281 -49.207031 127.125 -50.5 C 131.019531 -51.800781 134.234375 -53.097656 136.765625 -54.390625 C 139.296875 -55.691406 141.789062 -56.34375 144.25 -56.34375 C 146.84375 -56.34375 148.238281 -54.976562 148.4375 -52.25 C 148.644531 -49.519531 148.75 -46.582031 148.75 -43.4375 L 148.75 -3.890625 C 148.75 -1.566406 147.828125 0.0664062 145.984375 1.015625 C 144.140625 1.972656 141.921875 2.554688 139.328125 2.765625 C 136.734375 2.972656 134.273438 3.078125 131.953125 3.078125 C 122.390625 3.078125 113.164062 0.890625 104.28125 -3.484375 C 95.40625 -7.859375 87.519531 -13.832031 80.625 -21.40625 C 73.726562 -28.988281 68.226562 -37.425781 64.125 -46.71875 L 64.125 -24.171875 C 64.125 -18.296875 64.632812 -13.476562 65.65625 -9.71875 C 66.6875 -5.96875 68.566406 -2.726562 71.296875 0 L 2.65625 0 C 5.394531 -2.726562 7.273438 -5.96875 8.296875 -9.71875 C 9.316406 -13.476562 9.828125 -18.296875 9.828125 -24.171875 L 9.828125 -164.328125 C 9.828125 -165.140625 9.789062 -166.640625 9.71875 -168.828125 C 9.65625 -171.015625 9.007812 -173.234375 7.78125 -175.484375 C 6.550781 -177.742188 4.300781 -179.28125 1.03125 -180.09375 Z M 1.03125 -180.09375 "/></g></g></g><g fill="#fcf5e2" fill-opacity="0.4"><g transform="translate(234.135755, 274.680095)"><g><path d="M 4.09375 -23.765625 C 4.09375 -28.679688 5.285156 -33.15625 7.671875 -37.1875 C 10.066406 -41.21875 13.3125 -44.425781 17.40625 -46.8125 C 21.507812 -49.207031 26.019531 -50.40625 30.9375 -50.40625 C 35.851562 -50.40625 40.328125 -49.207031 44.359375 -46.8125 C 48.390625 -44.425781 51.597656 -41.21875 53.984375 -37.1875 C 56.378906 -33.15625 57.578125 -28.679688 57.578125 -23.765625 C 57.578125 -18.847656 56.378906 -14.335938 53.984375 -10.234375 C 51.597656 -6.140625 48.390625 -2.894531 44.359375 -0.5 C 40.328125 1.882812 35.851562 3.078125 30.9375 3.078125 C 26.019531 3.078125 21.507812 1.882812 17.40625 -0.5 C 13.3125 -2.894531 10.066406 -6.140625 7.671875 -10.234375 C 5.285156 -14.335938 4.09375 -18.847656 4.09375 -23.765625 Z M 4.09375 -23.765625 "/></g></g></g><g fill="#fec565" fill-opacity="1"><g transform="translate(228.883763, 269.428108)"><g><path d="M 4.09375 -23.765625 C 4.09375 -28.679688 5.285156 -33.15625 7.671875 -37.1875 C 10.066406 -41.21875 13.3125 -44.425781 17.40625 -46.8125 C 21.507812 -49.207031 26.019531 -50.40625 30.9375 -50.40625 C 35.851562 -50.40625 40.328125 -49.207031 44.359375 -46.8125 C 48.390625 -44.425781 51.597656 -41.21875 53.984375 -37.1875 C 56.378906 -33.15625 57.578125 -28.679688 57.578125 -23.765625 C 57.578125 -18.847656 56.378906 -14.335938 53.984375 -10.234375 C 51.597656 -6.140625 48.390625 -2.894531 44.359375 -0.5 C 40.328125 1.882812 35.851562 3.078125 30.9375 3.078125 C 26.019531 3.078125 21.507812 1.882812 17.40625 -0.5 C 13.3125 -2.894531 10.066406 -6.140625 7.671875 -10.234375 C 5.285156 -14.335938 4.09375 -18.847656 4.09375 -23.765625 Z M 4.09375 -23.765625 "/></g></g></g></svg>