<svg xmlns="http://www.w3.org/2000/svg" xmlns:xlink="http://www.w3.org/1999/xlink" zoomAndPan="magnify" preserveAspectRatio="xMidYMid meet" version="1.0" viewBox="-37.5 -37.5 450 450"><defs><filter x="0%" y="0%" width="100%" height="100%" id="4859a4f83c"><feColorMatrix values="0 0 0 0 1 0 0 0 0 1 0 0 0 0 1 0 0 0 1 0" color-interpolation-filters="sRGB"/></filter><mask id="0939b2e9a7"><g filter="url(#4859a4f83c)"><rect x="-37.5" width="450" fill="#000000" y="-37.499999" height="449.999989" fill-opacity="0.31"/></g></mask><clipPath id="7d4926f4c8"><path d="M 3.605469 0.421875 L 339.652344 0.421875 L 339.652344 335.796875 L 3.605469 335.796875 Z M 3.605469 0.421875 " clip-rule="nonzero"/></clipPath><clipPath id="ea7c52da0a"><path d="M 334.023438 168.109375 C 334.023438 150.609375 342.742188 132.035156 337.378906 116.28125 C 331.878906 99.921875 313.242188 89.863281 302.980469 76.253906 C 292.589844 62.507812 288.296875 42.460938 274.015625 32.46875 C 259.871094 22.613281 238.75 24.828125 221.785156 19.460938 C 205.359375 14.367188 189.738281 0.421875 171.566406 0.421875 C 153.398438 0.421875 137.707031 14.300781 121.347656 19.460938 C 104.382812 24.757812 83.199219 22.546875 69.050781 32.46875 C 54.769531 42.460938 50.476562 62.507812 40.085938 76.253906 C 29.757812 89.863281 11.1875 99.921875 5.621094 116.28125 C 0.324219 132.035156 8.976562 150.609375 8.976562 168.109375 C 8.976562 185.609375 0.257812 204.179688 5.621094 219.9375 C 11.121094 236.296875 29.757812 246.355469 40.019531 259.964844 C 50.410156 273.710938 54.703125 293.757812 68.984375 303.746094 C 83.128906 313.671875 104.25 311.457031 121.28125 316.753906 C 137.707031 321.851562 153.328125 335.796875 171.5 335.796875 C 189.671875 335.796875 205.359375 321.917969 221.71875 316.753906 C 238.683594 311.457031 259.871094 313.671875 274.015625 303.746094 C 288.296875 293.757812 292.589844 273.710938 302.980469 259.964844 C 313.308594 246.355469 331.878906 236.296875 337.378906 219.9375 C 342.742188 204.113281 334.023438 185.542969 334.023438 168.109375 Z M 334.023438 168.109375 " clip-rule="nonzero"/></clipPath><clipPath id="7e31f86518"><rect x="0" width="344" y="0" height="336"/></clipPath></defs><g mask="url(#0939b2e9a7)"><g transform="matrix(1, 0, 0, 1, 16, 15)"><g clip-path="url(#7e31f86518)"><g clip-path="url(#7d4926f4c8)"><g clip-path="url(#ea7c52da0a)"><path fill="#009cfd" d="M 0.257812 0.421875 L 342.996094 0.421875 L 342.996094 335.796875 L 0.257812 335.796875 Z M 0.257812 0.421875 " fill-opacity="1" fill-rule="nonzero"/></g></g></g></g></g></svg>